<svg width="20" height="22" viewBox="0 0 20 22" fill="none" xmlns="http://www.w3.org/2000/svg">
<path d="M5 7V5C5 3.67916 5.07093 1.93397 6 1C6.92908 0.0660251 8.68609 0 10 0C11.3139 0 13.0709 0.0660251 14 1C14.9291 1.93397 15 3.67916 15 5V7H18C18.2628 7 18.8142 6.81321 19 7C19.1858 7.18679 19 7.73583 19 8V20C19 20.2642 19.1858 20.8132 19 21C18.8142 21.1868 18.2628 21 18 21H2C1.73722 21 1.18582 21.1868 1 21C0.814189 20.8132 1 20.2642 1 20V8C1 7.73583 0.814189 7.18679 1 7C1.18582 6.81321 1.73722 7 2 7H5ZM5 9H3V19H17V9H15V11H13V9H7V11H5V9ZM7 7H13V5C13 4.2075 12.5575 3.56038 12 3C11.4426 2.43962 10.7884 2 10 2C9.21166 2 8.55745 2.43962 8 3C7.44256 3.56038 7 4.2075 7 5V7Z" fill="#C4C4C4"/>
</svg>
